<svg id="Слой_1" data-name="Слой 1" xmlns="http://www.w3.org/2000/svg" xmlns:xlink="http://www.w3.org/1999/xlink" viewBox="0 0 49.29 49.05"><defs><style>.cls-1{fill:none;}.cls-2{clip-path:url(#clip-path);}.cls-3{fill:#b3502d;}</style><clipPath id="clip-path" transform="translate(0 0)"><rect class="cls-1" width="49.29" height="49.05"/></clipPath></defs><g class="cls-2"><path class="cls-3" d="M23.08,12.8a8.59,8.59,0,0,0-3.48.71l-.13.07c-4.19,1.95-5.07,6.55-5.24,7.92-.72,5.79,2.7,13.18,8.94,14.94a9.69,9.69,0,0,0,2.68.37A10.14,10.14,0,0,0,35,31c2.7-5.87-.9-13.34-5.81-16.38a12.92,12.92,0,0,0-6.15-1.77m2.77,24.65a10.25,10.25,0,0,1-2.87-.4c-6.56-1.85-10.16-9.58-9.41-15.63.18-1.44,1.11-6.33,5.61-8.42l.14-.07a9.26,9.26,0,0,1,3.76-.77A13.64,13.64,0,0,1,29.59,14c5.14,3.18,8.89,11,6.06,17.18a10.79,10.79,0,0,1-9.8,6.24M23.11,11.3a10.15,10.15,0,0,0-4.15.87l-.17.07c-4.89,2.28-5.9,7.53-6.1,9.08-.79,6.39,3.05,14.57,10,16.54a11.76,11.76,0,0,0,7.88-.58,11.62,11.62,0,0,0,5.85-5.73c3-6.65-.84-14.79-6.39-18.22a14.06,14.06,0,0,0-7-2m2.73,27.63a12.22,12.22,0,0,1-3.3-.45C15.23,36.41,11.2,27.9,12,21.25c.2-1.64,1.27-7.16,6.47-9.59l.17-.07c5.43-2.42,10.75.57,11.76,1.2,5.79,3.57,9.84,12.06,6.64,19a12.25,12.25,0,0,1-6.17,6.05,12.62,12.62,0,0,1-5.06,1.07" transform="translate(0 0)"/><path class="cls-3" d="M25,2.13a12.42,12.42,0,0,0,.81,5.58,1.9,1.9,0,0,0,.27.43,3.41,3.41,0,0,0,.78-.69,15.47,15.47,0,0,0,2.67-5A21.88,21.88,0,0,0,25,2.13m1,6.66H26q-.39-.07-.75-.81c-.23-.48-1-2.35-.87-6.17v-.3h.32a22.24,22.24,0,0,1,5.38.44l.36.07-.11.34a16.34,16.34,0,0,1-2.92,5.51c-.53.61-1,.93-1.34.93M15,4.63C16.39,7.55,18.25,9,18.91,9H19l.06,0c.57-.42,1.33-2.62.69-6.1a26.22,26.22,0,0,0-4,1.37c-.25.12-.52.24-.81.39m3.95,5c-1.15,0-3.22-1.88-4.7-5l-.13-.28.28-.14c.41-.21.78-.38,1.13-.54a26.25,26.25,0,0,1,4.43-1.5l.34-.08.07.33c.72,3.51.12,6.35-.88,7.07h0a1.05,1.05,0,0,1-.3.15l-.16,0Zm15.6-5.54a20.14,20.14,0,0,0-1.85,4c-.4,1.28-.41,2.22,0,2.59a.58.58,0,0,0,.23.16c.78.35,2.4-.37,4.34-1.92.64-.52,1.31-1.12,2-1.76a20.3,20.3,0,0,0-4.65-3.08M33.32,11.6a1.81,1.81,0,0,1-.74-.15,1.65,1.65,0,0,1-.44-.29c-.57-.57-.61-1.65-.13-3.22a21.43,21.43,0,0,1,2.07-4.41l.16-.26.27.13a20.87,20.87,0,0,1,5.36,3.54l.24.22-.23.24a27.85,27.85,0,0,1-2.25,2c-1.3,1-3,2.16-4.31,2.16M4.86,13.87a7.16,7.16,0,0,0,4.82,1.2L10,15a3.19,3.19,0,0,0,2.08-1.12,2,2,0,0,0,.25-1A5.92,5.92,0,0,0,9.46,8.29a21.74,21.74,0,0,0-4.6,5.58m4,1.89a8.2,8.2,0,0,1-4.65-1.53L4,14.06l.13-.24A22.65,22.65,0,0,1,9.21,7.64l.19-.17.22.14A6.68,6.68,0,0,1,13,12.87a2.56,2.56,0,0,1-.34,1.36,3.81,3.81,0,0,1-2.54,1.43l-.32.05c-.3,0-.6,0-.9,0M38.06,17c1.18,1.07,4,.83,7.37-.61a24.88,24.88,0,0,0-3-5.54l-.91.57c-2.69,1.78-4.27,3.76-3.92,4.94A1.42,1.42,0,0,0,38,17l-.21.25Zm2.27,1.3a4,4,0,0,1-2.73-.83l0,0a2.13,2.13,0,0,1-.58-.9c-.43-1.48,1.17-3.64,4.19-5.64.39-.25.79-.5,1.21-.74l.27-.16.18.25A22.92,22.92,0,0,1,44.61,13a25.49,25.49,0,0,1,1.55,3.41l.1.28-.27.12a14.47,14.47,0,0,1-5.66,1.45M2.86,18.7a19.92,19.92,0,0,0-.67,5.65,16.26,16.26,0,0,0,1.91-.27C7.5,23.4,9,22,9,21.6c0-.21-.56-1-2.4-1.85A15.57,15.57,0,0,0,2.86,18.7M1.55,25.05l0-.33a20.43,20.43,0,0,1,.76-6.47L2.37,18l.3.05a16.16,16.16,0,0,1,4.16,1.15C8.76,20,9.63,21,9.62,21.6c0,1-2,2.44-5.38,3.11A19.31,19.31,0,0,1,1.89,25Zm39.13-.65,0,.09c.91,2,4.69,2.43,6.27,2.53a24.28,24.28,0,0,0-.24-5.63c-3.83.39-6,1.53-6.2,2.44a1.05,1.05,0,0,0,.12.57m6.93,3.3-.32,0c-1.79-.09-6.07-.54-7.17-2.93l0-.1a1.53,1.53,0,0,1-.17-.92c.24-1.46,3-2.64,7.11-3l.31,0,0,.3a24.64,24.64,0,0,1,.27,6.4ZM3,29.52c.13.47.28,1,.45,1.45a24.12,24.12,0,0,0,2,4.25c3.65-2.08,5.12-4.81,4.68-5.64-.34-.67-3-1.33-6.79-.17h0L3,29.52m2.19,6.57L5,35.82A23.83,23.83,0,0,1,2.8,31.17c-.21-.6-.4-1.2-.55-1.78l-.07-.28.28-.1.64-.21c3.73-1.16,7-.67,7.61.49.72,1.4-1.37,4.54-5.25,6.64Zm35.79-4a2.32,2.32,0,0,0-1.74.49,1.24,1.24,0,0,0-.17.61c-.23,2.23,2.19,4.48,3.51,5.52a22.65,22.65,0,0,0,3.06-5.63,14.72,14.72,0,0,0-4.66-1m1.72,7.54-.27-.2c-1.62-1.24-4.3-3.7-4-6.3a1.84,1.84,0,0,1,.31-.93A2.76,2.76,0,0,1,41,31.47a15.88,15.88,0,0,1,5.21,1.14l.3.11-.11.29a23.41,23.41,0,0,1-3.47,6.38ZM8.26,39.09a23.33,23.33,0,0,0,5.47,4.54A8.06,8.06,0,0,0,15.51,38a2.33,2.33,0,0,0-.71-1.56c-.9-.63-4-.07-6.54,2.67m5.65,5.4-.26-.15a24.15,24.15,0,0,1-6.09-5l-.18-.21.18-.2c2.75-3.16,6.36-3.88,7.63-3a2.83,2.83,0,0,1,1,2,8.84,8.84,0,0,1-2.09,6.35ZM33.45,39a1.15,1.15,0,0,0-.33,0,1.47,1.47,0,0,0-.7.53c-1,1.18-.68,3.55.76,6.09.47-.17.93-.36,1.37-.55l.3-.14a19.84,19.84,0,0,0,3.34-2c-1.56-2.38-3.48-4-4.74-4m-.57,7.44-.14-.23c-1.72-2.9-2.05-5.59-.85-7a2.24,2.24,0,0,1,1-.74c1.58-.46,4,1.4,6,4.5l.15.25-.23.17a21.12,21.12,0,0,1-3.7,2.2l-.31.14c-.54.24-1.11.46-1.69.66ZM23.47,39.3a5.14,5.14,0,0,1,1.19.13c2.48.6,4.38,3.2,5,6.84l1.22-.15c-1.62-3.15-1.72-6-.23-7.84A3.55,3.55,0,0,1,32.48,37c2.22-.65,5,1.09,7.37,4.53l1.25-1.23c-1.59-1.28-4.59-4.15-4.27-7.34a3.17,3.17,0,0,1,.61-1.66c1.32-1.7,4.5-1.81,8.76-.31l.44-1.9c-2.21-.16-6.59-.86-7.94-3.77a3.13,3.13,0,0,1-.33-1.86c.35-2.16,3.21-3.68,7.87-4.2L46,18.47c-4.1,1.7-7.73,1.71-9.52,0a3.41,3.41,0,0,1-1-1.56c-.61-2.08.95-4.6,4.28-6.92.4-.28.83-.55,1.28-.83l-.38-.42c-.51.51-1,1-1.55,1.42-2,1.74-5,3.61-7.19,2.63a2.87,2.87,0,0,1-.91-.62c-.94-.94-1.12-2.44-.56-4.46a20,20,0,0,1,2-4.41l-.72-.23A21.16,21.16,0,0,1,29.25,8c-1.52,2.12-2.77,2.38-3.57,2.23a2.9,2.9,0,0,1-2-2,16.24,16.24,0,0,1-.86-5.93l-.89.13A12,12,0,0,1,21.58,9a3.33,3.33,0,0,1-2,2.1,3.22,3.22,0,0,1-2.47-.48,11.8,11.8,0,0,1-4-4.68L11.48,7.11a8.25,8.25,0,0,1,3,4.89A4.39,4.39,0,0,1,14,15a5.21,5.21,0,0,1-3.58,2.12,8.5,8.5,0,0,1-1.75.14A9.62,9.62,0,0,1,4.27,16L4,16.74A17.26,17.26,0,0,1,7.64,17.9c2.26,1,3.55,2.38,3.53,3.71,0,1.69-2.29,3.87-7.27,4.67-.49.08-1,.14-1.48.19l.16.93.65-.2c4.67-1.28,8-.25,8.87,1.44,1,1.95-.78,5.65-5.42,8.33l.25.35c3.18-3.21,7.26-4,9.18-2.62a4.3,4.3,0,0,1,1.61,3,10,10,0,0,1-1.85,6.71l.87.37c.75-1.69,2.61-5,5.92-5.43a7.19,7.19,0,0,1,.81-.05M29.13,47l-.05-.31c-.55-3.53-2.31-6.07-4.58-6.62a4.7,4.7,0,0,0-1-.11,4.17,4.17,0,0,0-.71.05c-3.19.46-4.93,3.88-5.53,5.33l-.13.31-2.24-1,.23-.32a9.42,9.42,0,0,0,2-6.58,3.61,3.61,0,0,0-1.34-2.56C14,34,10.07,34.9,7.14,38.05l-.29.31-1.12-1.6L6,36.59c4.38-2.42,6.36-5.92,5.45-7.67-.74-1.43-4-2.23-8.07-1.1-.34.09-.67.19-1,.3l-.37.13-.42-2.36.37,0a17.5,17.5,0,0,0,1.79-.21c4.34-.7,6.7-2.61,6.71-4,0-1.05-1.17-2.22-3.15-3.13a17.18,17.18,0,0,0-3.92-1.19L3,17.22,4,15.09l.33.2a9,9,0,0,0,4.36,1.32,7.78,7.78,0,0,0,1.61-.13,4.52,4.52,0,0,0,3.12-1.82,3.72,3.72,0,0,0,.4-2.57,7.75,7.75,0,0,0-3-4.74l-.33-.26,3-2.19.18.36A11.54,11.54,0,0,0,17.47,10a2.52,2.52,0,0,0,1.94.4A2.71,2.71,0,0,0,21,8.71a11.67,11.67,0,0,0,.24-6.45l-.07-.33,2.36-.34V2A16.19,16.19,0,0,0,24.29,8c.4.94.91,1.47,1.52,1.58.86.16,1.85-.52,2.89-2a20.47,20.47,0,0,0,2.48-5.07l.11-.31,2.12.7-.2.33a20.18,20.18,0,0,0-2.1,4.59c-.5,1.8-.37,3.09.39,3.86a2.51,2.51,0,0,0,.71.48c1.89.83,4.56-.91,6.47-2.53.58-.5,1.18-1,1.76-1.63l.25-.26,1.39,1.52-.34.2c-.56.33-1.09.66-1.57,1-3.1,2.15-4.57,4.42-4,6.23A2.94,2.94,0,0,0,37,18c1.64,1.56,5.14,1.45,9.13-.29l.36-.15.65,2.28-.39,0c-4.5.44-7.36,1.82-7.67,3.7a2.53,2.53,0,0,0,.28,1.5c1.29,2.77,5.85,3.31,7.75,3.42l.4,0-.77,3.36-.36-.14c-4.15-1.52-7.19-1.54-8.35,0h0a2.58,2.58,0,0,0-.48,1.35c-.31,3.07,2.91,5.91,4.31,7l.28.22L39.73,42.6l-.22-.34c-2.22-3.42-4.84-5.18-6.84-4.61a3,3,0,0,0-1.47,1c-1.38,1.66-1.18,4.48.52,7.55l.23.41ZM18.7,45.81a24.78,24.78,0,0,0,8.84,1.07c-.46-2.9-1.78-5-3.42-5.39a3,3,0,0,0-1.13,0c-2.32.34-3.75,3.11-4.29,4.36M26,47.57a25.75,25.75,0,0,1-7.83-1.26l-.33-.11.12-.31c.54-1.39,2.11-4.66,4.94-5.07a3.62,3.62,0,0,1,1.39,0c2,.48,3.53,2.88,4,6.26l.05.33-.35,0c-.67.06-1.32.08-2,.08M1.49,29.78c.19.71.42,1.41.67,2.09a25,25,0,0,0,1,2.37,26.28,26.28,0,0,0,3.27,5.07l.42.51a24.66,24.66,0,0,0,7,5.62,26.94,26.94,0,0,0,12.13,3,22.64,22.64,0,0,0,6.78-1l.63-.2c.62-.21,1.22-.45,1.8-.71l.32-.14a21.62,21.62,0,0,0,4-2.37l.46-.36a21.93,21.93,0,0,0,3.22-3.17l.26-.33a24.52,24.52,0,0,0,3.85-7l.17-.5a23.57,23.57,0,0,0,.76-2.89c.09-.44.16-.9.23-1.47l.07-.59a25.53,25.53,0,0,0-.29-7l-.07-.32a26.22,26.22,0,0,0-1.58-5.25,25.57,25.57,0,0,0-3.12-5.5l-.35-.46a23.75,23.75,0,0,0-2.28-2.5l-.16-.17-.15-.11a21.72,21.72,0,0,0-5.76-3.8l-.6-.26a20.38,20.38,0,0,0-2.92-1l-.84-.21A23.62,23.62,0,0,0,24.47.66l-.83.06a23.74,23.74,0,0,0-3.14.45L20,1.28a26.71,26.71,0,0,0-6.23,2.26l-.1,0a25,25,0,0,0-10.43,10A21.29,21.29,0,0,0,.71,25l.12,1.34c.06.5.13.91.17,1.21.09.52.13.79.21,1.14s.2.8.28,1.05M26,49.05a27.85,27.85,0,0,1-12.46-3,25.36,25.36,0,0,1-7.17-5.78l-.43-.51a27.37,27.37,0,0,1-3.35-5.19c-.3-.61-.62-1.4-1-2.44-.31-.75-.45-1.16-.59-1.58-.06-.21-.24-.8-.41-1.58a17.41,17.41,0,0,1-.37-2.48L0,25.09A22,22,0,0,1,2.67,13.27,25.64,25.64,0,0,1,13.37,3l.1,0A27.66,27.66,0,0,1,19.86.65l.49-.11A26.88,26.88,0,0,1,23.59.08L24.43,0a24.63,24.63,0,0,1,6.1.49l.86.22a21.79,21.79,0,0,1,3,1L35,2A22.31,22.31,0,0,1,41,5.89l.17.13.18.19a24.06,24.06,0,0,1,2.33,2.56l.35.46a26.32,26.32,0,0,1,3.21,5.65,27.12,27.12,0,0,1,1.61,5.36l.07.33a25.64,25.64,0,0,1,.29,7.14l-.07.59c-.07.59-.14,1.07-.23,1.52a24,24,0,0,1-.78,3l-.18.5A25,25,0,0,1,44,40.5l-.27.34a22.25,22.25,0,0,1-3.32,3.26l-.47.37a23.07,23.07,0,0,1-4.09,2.45l-.33.14c-.59.27-1.22.51-1.85.73L33,48a23.39,23.39,0,0,1-7,1" transform="translate(0 0)"/><path class="cls-3" d="M21.47,17.44l-.09,0a6.72,6.72,0,0,0-3.52,5.19.43.43,0,0,1,0,0,12.52,12.52,0,0,1,4.45-3.39,13,13,0,0,1,5.81-1.09l-.28-.18a8.54,8.54,0,0,0-4-1.11,5.88,5.88,0,0,0-2.37.49m-4.35,7.44V23.81a9.9,9.9,0,0,1,.08-1.23,7.39,7.39,0,0,1,3.9-5.67l.1-.05a6.55,6.55,0,0,1,2.65-.55,9.25,9.25,0,0,1,4.34,1.21,9.09,9.09,0,0,1,1.23.89l.78.69L29.14,19a12.25,12.25,0,0,0-6.52.93A11.69,11.69,0,0,0,17.73,24Zm1,1.48a8.25,8.25,0,0,0,5.52,6,6.91,6.91,0,0,0,7.9-3.65c1.34-2.79.39-5.9-1-7.93a11,11,0,0,0-6.12,0l3.09,5.92a1,1,0,0,1-.5,1.42,1.13,1.13,0,0,1-1.49-.47l-3.13-6a10.3,10.3,0,0,0-4.31,4.7m7.2,6.87A7,7,0,0,1,23.49,33a8.94,8.94,0,0,1-6-6.56l0-.1,0-.1a11,11,0,0,1,5-5.29l.3-.16,3.44,6.6a.46.46,0,0,0,.6.19A.42.42,0,0,0,27,27l-3.43-6.56.36-.12a11.58,11.58,0,0,1,7-.11l.12,0,.06.1c1.49,2.17,2.55,5.58,1.08,8.64a7.63,7.63,0,0,1-6.83,4.26M23.86,15.46a7.44,7.44,0,0,0-3,.63l-.12.06a8.2,8.2,0,0,0-4.38,6.32c-.61,4.41,2,10,6.93,11.32a8.53,8.53,0,0,0,5.56-.46,8.32,8.32,0,0,0,4.17-4c2.21-4.61-.45-10.2-4.33-12.51h0a9.84,9.84,0,0,0-4.79-1.35m1.49,19.25a8.64,8.64,0,0,1-2.28-.3c-5.24-1.4-8.06-7.35-7.41-12a8.85,8.85,0,0,1,4.75-6.81l.12-.06c3.95-1.75,7.75.32,8.48.75,4.11,2.46,6.94,8.41,4.58,13.33a9.08,9.08,0,0,1-4.49,4.32,9.39,9.39,0,0,1-3.75.8" transform="translate(0 0)"/></g></svg>